<svg xmlns="http://www.w3.org/2000/svg" version="1.1" xmlns:xlink="http://www.w3.org/1999/xlink" xmlns:svgjs="http://svgjs.dev/svgjs" width="1500" height="393" viewBox="0 0 1500 393"><g transform="matrix(1,0,0,1,-0.9090909090909918,-0.5532917943420443)"><svg viewBox="0 0 396 104" data-background-color="#ffffff" preserveAspectRatio="xMidYMid meet" height="393" width="1500" xmlns="http://www.w3.org/2000/svg" xmlns:xlink="http://www.w3.org/1999/xlink"><g id="tight-bounds" transform="matrix(1,0,0,1,0.2400000000000091,0.1464181847622683)"><svg viewBox="0 0 395.52 103.70716363047548" height="103.70716363047548" width="395.52"><g><svg viewBox="0 0 672.3299757463833 176.28801276396587" height="103.70716363047548" width="395.52"><g><rect width="7.919065302375342" height="128.19786745860034" x="248.1603730032349" y="24.045072652682762" fill="#0080ff" opacity="1" stroke-width="0" stroke="transparent" fill-opacity="1" class="rect-yte-0" data-fill-palette-color="primary" rx="1%" id="yte-0" data-palette-color="#0080ff"></rect></g><g transform="matrix(1,0,0,1,276.8099757463834,24.36397282049022)"><svg viewBox="0 0 395.52 127.56006712298543" height="127.56006712298543" width="395.52"><g id="textblocktransform"><svg viewBox="0 0 395.52 127.56006712298543" height="127.56006712298543" width="395.52" id="textblock"><g><svg viewBox="0 0 395.52 87.81298158547733" height="87.81298158547733" width="395.52"><g transform="matrix(1,0,0,1,0,0)"><svg width="395.52" viewBox="3.78 -33.13 191.4 42.510000000000005" height="87.81298158547733" data-palette-color="#0080ff"><g class="wordmark-text-0" data-fill-palette-color="primary" id="text-0"><path d="M7.88 0L3.78 0 3.78-31.95 7.88-31.95 7.88 0ZM23.7 0L5 0 5-3.48 23.7-3.48 23.7 0ZM23.18-14.58L6.13-14.58 6.13-18.03 23.18-18.03 23.18-14.58ZM23.55-28.48L4.98-28.48 4.98-31.95 23.55-31.95 23.55-28.48ZM37.5 0.53L37.5 0.53Q33.1 0.53 30.8-2.2 28.5-4.93 28.5-10.15L28.5-10.15 28.5-14.18Q28.5-19.43 30.82-22.19 33.15-24.95 37.67-24.95L37.67-24.95Q39.92-24.95 41.57-24.19 43.22-23.43 44.25-22.05 45.27-20.68 45.62-18.8L45.62-18.8 46.95-18.8 45.75-15.08Q45.67-17.23 44.78-18.69 43.9-20.15 42.39-20.9 40.87-21.65 38.92-21.65L38.92-21.65Q35.82-21.65 34.19-19.85 32.55-18.05 32.55-14.55L32.55-14.55 32.55-9.9Q32.55-6.45 34.19-4.65 35.82-2.85 38.92-2.85L38.92-2.85Q40.77-2.85 42.2-3.56 43.62-4.28 44.56-5.54 45.5-6.8 45.85-8.4L45.85-8.4 46.85-5.5 45.65-5.5Q45.3-3.85 44.31-2.48 43.32-1.1 41.66-0.29 40 0.53 37.5 0.53ZM49.7 0L45.65 0 45.82-5.9 45.75-7.2 45.75-17.4 45.77-18.25 45.67-25.18 45.67-33.13 49.7-33.13 49.7 0ZM65.8-7.3L65.8-7.3Q60.82-7.3 58.16-9.47 55.5-11.65 55.5-15.7L55.5-15.7 55.5-16.32Q55.5-18.85 56.53-20.73 57.57-22.6 59.85-23.66 62.12-24.73 65.8-24.83L65.8-24.83 78.25-25.23 78.25-22.03 70.9-22.28 70.87-22.1Q72.59-21.75 73.7-20.9 74.8-20.05 75.33-18.78 75.87-17.5 75.87-15.8L75.87-15.8 75.87-15.25Q75.87-11.38 73.32-9.34 70.77-7.3 65.8-7.3ZM65.62 6.15L65.62 6.15 66.2 6.15Q68.45 6.15 70.06 5.81 71.67 5.48 72.55 4.75 73.42 4.03 73.42 2.83L73.42 2.83 73.42 2.73Q73.42 1.33 72.41 0.59 71.4-0.15 68.95-0.38L68.95-0.38 62.05-1 63.2-1.05Q61.8-0.85 60.73-0.4 59.67 0.05 59.07 0.79 58.47 1.53 58.47 2.63L58.47 2.63 58.47 2.68Q58.47 3.95 59.35 4.73 60.22 5.5 61.82 5.83 63.42 6.15 65.62 6.15ZM66.12 9.38L65.4 9.38Q62.1 9.38 59.71 8.81 57.32 8.25 56.01 6.99 54.7 5.73 54.7 3.6L54.7 3.6 54.7 3.5Q54.7 2 55.41 1 56.12 0 57.33-0.58 58.55-1.15 60.05-1.35L60.05-1.35 60.02-1.5Q57.97-1.85 57-2.71 56.02-3.58 56.02-4.95L56.02-4.95 56.02-4.98Q56.02-5.93 56.46-6.6 56.9-7.28 57.78-7.68 58.67-8.08 60.05-8.18L60.05-8.18 60.05-8.68 64.7-7.5 62.8-7.55Q61.1-7.53 60.45-7.14 59.8-6.75 59.8-5.98L59.8-5.98 59.8-5.95Q59.8-5.13 60.72-4.7 61.65-4.28 63.87-4.03L63.87-4.03 69.8-3.43Q73.67-3.03 75.45-1.56 77.22-0.1 77.22 2.75L77.22 2.75 77.22 2.88Q77.22 5.15 75.87 6.6 74.52 8.05 72.05 8.71 69.57 9.38 66.12 9.38L66.12 9.38ZM65.75-10.3L65.75-10.3Q67.84-10.3 69.23-10.91 70.62-11.53 71.33-12.76 72.05-14 72.05-15.8L72.05-15.8 72.05-16.4Q72.05-18.15 71.36-19.38 70.67-20.6 69.3-21.24 67.92-21.88 65.84-21.88L65.84-21.88 65.7-21.88Q63.45-21.88 62.03-21.19 60.62-20.5 59.98-19.26 59.35-18.03 59.35-16.38L59.35-16.38 59.35-15.8Q59.35-14 60.06-12.78 60.77-11.55 62.2-10.93 63.62-10.3 65.75-10.3ZM92.17 0.55L92.17 0.55Q86.59 0.55 83.77-2.18 80.94-4.9 80.94-9.98L80.94-9.98 80.94-14.33Q80.94-19.48 83.57-22.26 86.19-25.05 91.24-25.05L91.24-25.05Q94.64-25.05 96.92-23.79 99.19-22.53 100.34-20.2 101.49-17.88 101.49-14.65L101.49-14.65 101.49-13.75Q101.49-12.95 101.43-12.15 101.37-11.35 101.27-10.58L101.27-10.58 97.54-10.58Q97.59-11.78 97.61-12.85 97.62-13.93 97.62-14.83L97.62-14.83Q97.62-17.05 96.91-18.59 96.19-20.13 94.78-20.94 93.37-21.75 91.24-21.75L91.24-21.75Q88.09-21.75 86.52-19.93 84.94-18.1 84.94-14.7L84.94-14.7 84.94-12.38 84.97-11.88 84.97-9.55Q84.97-8.03 85.42-6.8 85.87-5.58 86.83-4.69 87.79-3.8 89.28-3.34 90.77-2.88 92.82-2.88L92.82-2.88Q95.19-2.88 97.24-3.5 99.29-4.13 101.09-5.2L101.09-5.2 100.72-1.7Q99.09-0.68 96.94-0.06 94.79 0.55 92.17 0.55ZM100.42-10.58L83.07-10.58 83.07-13.63 100.42-13.63 100.42-10.58ZM118.04 0.58L118.04 0.58Q112.12 0.58 109.15-2.75 106.19-6.08 106.19-12.2L106.19-12.2 106.19-19.78Q106.19-25.9 109.14-29.21 112.09-32.52 117.99-32.52L117.99-32.52Q119.89-32.52 121.45-32.18 123.02-31.83 124.24-31.28 125.47-30.73 126.31-30.13L126.31-30.13 126.67-26.28Q125.19-27.33 123.2-28.11 121.22-28.9 118.54-28.9L118.54-28.9Q114.52-28.9 112.47-26.51 110.42-24.13 110.42-19.73L110.42-19.73 110.42-12.35Q110.42-7.98 112.49-5.56 114.56-3.15 118.69-3.15L118.69-3.15Q121.34-3.15 123.38-3.93 125.42-4.7 126.92-5.83L126.92-5.83 126.56-1.88Q125.72-1.28 124.47-0.7 123.22-0.13 121.6 0.23 119.99 0.58 118.04 0.58ZM150.76 0L146.74 0 146.91-5.93 146.76-6.55 146.76-14.33 146.79-15.75Q146.79-18.73 145.28-20.15 143.76-21.58 140.49-21.58L140.49-21.58Q137.86-21.58 135.68-20.83 133.49-20.08 131.79-19.07L131.79-19.07 132.16-22.53Q133.11-23.1 134.43-23.66 135.74-24.23 137.43-24.6 139.11-24.98 141.14-24.98L141.14-24.98Q143.76-24.98 145.6-24.34 147.44-23.7 148.58-22.5 149.71-21.3 150.24-19.6 150.76-17.9 150.76-15.8L150.76-15.8 150.76 0ZM138.34 0.53L138.34 0.53Q134.71 0.53 132.78-1.24 130.84-3 130.84-6.28L130.84-6.28 130.84-7Q130.84-10.38 132.93-12.04 135.01-13.7 139.56-14.35L139.56-14.35 147.29-15.45 147.51-12.5 140.06-11.43Q137.26-11.03 136.06-10.06 134.86-9.1 134.86-7.23L134.86-7.23 134.86-6.83Q134.86-4.9 136.05-3.88 137.24-2.85 139.61-2.85L139.61-2.85Q141.71-2.85 143.21-3.58 144.71-4.3 145.64-5.53 146.56-6.75 146.89-8.25L146.89-8.25 147.51-5.5 146.74-5.5Q146.39-3.9 145.43-2.53 144.46-1.15 142.74-0.31 141.01 0.53 138.34 0.53ZM160.81-14.93L160.81-14.93 159.89-18.05 160.89-18.1Q161.69-21.2 163.64-22.99 165.59-24.78 168.81-24.78L168.81-24.78Q169.61-24.78 170.25-24.65 170.89-24.53 171.39-24.35L171.39-24.35 171.64-20.43Q171.01-20.63 170.25-20.75 169.49-20.88 168.56-20.88L168.56-20.88Q165.81-20.88 163.77-19.35 161.74-17.82 160.81-14.93ZM161.01 0L156.96 0 156.96-24.4 160.91-24.4 160.71-17.2 161.01-16.9 161.01 0ZM185.86 0.55L185.86 0.55Q180.28 0.55 177.46-2.18 174.63-4.9 174.63-9.98L174.63-9.98 174.63-14.33Q174.63-19.48 177.26-22.26 179.88-25.05 184.93-25.05L184.93-25.05Q188.33-25.05 190.61-23.79 192.88-22.53 194.03-20.2 195.18-17.88 195.18-14.65L195.18-14.65 195.18-13.75Q195.18-12.95 195.12-12.15 195.06-11.35 194.96-10.58L194.96-10.58 191.23-10.58Q191.28-11.78 191.3-12.85 191.31-13.93 191.31-14.83L191.31-14.83Q191.31-17.05 190.6-18.59 189.88-20.13 188.47-20.94 187.06-21.75 184.93-21.75L184.93-21.75Q181.78-21.75 180.21-19.93 178.63-18.1 178.63-14.7L178.63-14.7 178.63-12.38 178.66-11.88 178.66-9.55Q178.66-8.03 179.11-6.8 179.56-5.58 180.52-4.69 181.48-3.8 182.97-3.34 184.46-2.88 186.51-2.88L186.51-2.88Q188.88-2.88 190.93-3.5 192.98-4.13 194.78-5.2L194.78-5.2 194.41-1.7Q192.78-0.68 190.63-0.06 188.48 0.55 185.86 0.55ZM194.11-10.58L176.76-10.58 176.76-13.63 194.11-13.63 194.11-10.58Z" fill="#0080ff" data-fill-palette-color="primary"></path></g></svg></g></svg></g><g transform="matrix(1,0,0,1,0,108.54351902625048)"><svg viewBox="0 0 232.209792 19.01654809673495" height="19.01654809673495" width="232.209792"><g transform="matrix(1,0,0,1,0,0)"><svg width="232.209792" viewBox="0.95 -33.48 513.7099999999999 42.08" height="19.01654809673495" data-palette-color="#0080ff"><path d="M15.5-9.6L11.93-9.6 0.95-31.95 5.33-31.95 11.2-19.73 13.55-14.43 13.88-14.43 16.23-19.73 22.08-31.95 26.48-31.95 15.5-9.6ZM15.75 0L11.68 0 11.68-13.48 15.75-13.48 15.75 0ZM36.5 0.63L36.5 0.63Q31.25 0.63 28.54-2.21 25.82-5.05 25.82-10.38L25.82-10.38 25.82-14.1Q25.82-19.4 28.55-22.23 31.27-25.05 36.5-25.05L36.5-25.05Q41.75-25.05 44.46-22.23 47.17-19.4 47.17-14.1L47.17-14.1 47.17-10.38Q47.17-5.05 44.46-2.21 41.75 0.63 36.5 0.63ZM36.5-2.68L36.5-2.68Q39.75-2.68 41.44-4.6 43.12-6.53 43.12-10.15L43.12-10.15 43.12-14.33Q43.12-17.93 41.44-19.84 39.75-21.75 36.5-21.75L36.5-21.75Q33.27-21.75 31.57-19.84 29.87-17.93 29.87-14.33L29.87-14.33 29.87-10.15Q29.87-6.53 31.57-4.6 33.27-2.68 36.5-2.68ZM52.5-24.4L56.52-24.4 56.52-9.22Q56.52-7.3 57.06-5.86 57.6-4.42 58.82-3.64 60.05-2.85 62.12-2.85L62.12-2.85Q64.07-2.85 65.47-3.56 66.87-4.28 67.76-5.53 68.65-6.78 68.97-8.35L68.97-8.35 69.7-5.48 68.82-5.48Q68.45-3.83 67.45-2.46 66.45-1.1 64.76-0.29 63.07 0.53 60.6 0.53L60.6 0.53Q57.72 0.53 55.93-0.56 54.15-1.65 53.32-3.74 52.5-5.83 52.5-8.78L52.5-8.78 52.5-24.4ZM68.8-24.4L72.84-24.4 72.84 0 68.8 0 68.97-5.85 68.8-6.1 68.8-24.4ZM83.29-14.93L83.29-14.93 82.37-18.05 83.37-18.1Q84.17-21.2 86.12-22.99 88.07-24.78 91.29-24.78L91.29-24.78Q92.09-24.78 92.73-24.65 93.37-24.53 93.87-24.35L93.87-24.35 94.12-20.43Q93.49-20.63 92.73-20.75 91.97-20.88 91.04-20.88L91.04-20.88Q88.29-20.88 86.26-19.35 84.22-17.82 83.29-14.93ZM83.49 0L79.44 0 79.44-24.4 83.39-24.4 83.19-17.2 83.49-16.9 83.49 0ZM116.61-31.95L116.61 0 112.46 0 112.46-31.95 116.61-31.95ZM135.91-31.95L135.91 0 131.76 0 131.76-31.95 135.91-31.95ZM114.84-14.73L114.84-18.23 133.41-18.23 133.41-14.73 114.84-14.73ZM153.19 0.55L153.19 0.55Q147.61 0.55 144.79-2.18 141.96-4.9 141.96-9.98L141.96-9.98 141.96-14.33Q141.96-19.48 144.59-22.26 147.21-25.05 152.26-25.05L152.26-25.05Q155.66-25.05 157.94-23.79 160.21-22.53 161.36-20.2 162.51-17.88 162.51-14.65L162.51-14.65 162.51-13.75Q162.51-12.95 162.45-12.15 162.39-11.35 162.29-10.58L162.29-10.58 158.56-10.58Q158.61-11.78 158.62-12.85 158.64-13.93 158.64-14.83L158.64-14.83Q158.64-17.05 157.92-18.59 157.21-20.13 155.8-20.94 154.39-21.75 152.26-21.75L152.26-21.75Q149.11-21.75 147.54-19.93 145.96-18.1 145.96-14.7L145.96-14.7 145.96-12.38 145.99-11.88 145.99-9.55Q145.99-8.03 146.44-6.8 146.89-5.58 147.85-4.69 148.81-3.8 150.3-3.34 151.79-2.88 153.84-2.88L153.84-2.88Q156.21-2.88 158.26-3.5 160.31-4.13 162.11-5.2L162.11-5.2 161.74-1.7Q160.11-0.68 157.96-0.06 155.81 0.55 153.19 0.55ZM161.44-10.58L144.09-10.58 144.09-13.63 161.44-13.63 161.44-10.58ZM186.21 0L182.18 0 182.36-5.93 182.21-6.55 182.21-14.33 182.23-15.75Q182.23-18.73 180.72-20.15 179.21-21.58 175.93-21.58L175.93-21.58Q173.31-21.58 171.12-20.83 168.93-20.08 167.23-19.07L167.23-19.07 167.61-22.53Q168.56-23.1 169.87-23.66 171.18-24.23 172.87-24.6 174.56-24.98 176.58-24.98L176.58-24.98Q179.21-24.98 181.05-24.34 182.88-23.7 184.02-22.5 185.16-21.3 185.68-19.6 186.21-17.9 186.21-15.8L186.21-15.8 186.21 0ZM173.78 0.53L173.78 0.53Q170.16 0.53 168.22-1.24 166.28-3 166.28-6.28L166.28-6.28 166.28-7Q166.28-10.38 168.37-12.04 170.46-13.7 175.01-14.35L175.01-14.35 182.73-15.45 182.96-12.5 175.51-11.43Q172.71-11.03 171.51-10.06 170.31-9.1 170.31-7.23L170.31-7.23 170.31-6.83Q170.31-4.9 171.5-3.88 172.68-2.85 175.06-2.85L175.06-2.85Q177.16-2.85 178.66-3.58 180.16-4.3 181.08-5.53 182.01-6.75 182.33-8.25L182.33-8.25 182.96-5.5 182.18-5.5Q181.83-3.9 180.87-2.53 179.91-1.15 178.18-0.31 176.46 0.53 173.78 0.53ZM196.56 0L192.53 0 192.53-33.13 196.56-33.13 196.56 0ZM212.15 0.5L212.15 0.5Q209.33 0.5 207.6-0.35 205.88-1.2 205.1-2.93 204.33-4.65 204.33-7.23L204.33-7.23 204.33-22.63 208.33-22.63 208.33-7.7Q208.33-5.3 209.43-4.16 210.53-3.03 213.13-3.03L213.13-3.03Q214.6-3.03 215.97-3.35 217.33-3.68 218.53-4.28L218.53-4.28 218.15-0.8Q216.98-0.2 215.4 0.15 213.83 0.5 212.15 0.5ZM217.9-20.8L200.33-20.8 200.33-24.05 218.28-24.05 217.9-20.8ZM208.23-23.65L204.35-23.65 204.33-30.5 208.4-31.03 208.23-23.65ZM243.43 0L239.38 0 239.38-15.18Q239.38-17.15 238.84-18.57 238.3-20 237.09-20.79 235.88-21.58 233.78-21.58L233.78-21.58Q231.85-21.58 230.45-20.85 229.05-20.13 228.19-18.89 227.33-17.65 226.98-16.07L226.98-16.07 226.08-18.95 227.13-18.95Q227.5-20.6 228.5-21.96 229.5-23.33 231.19-24.14 232.88-24.95 235.3-24.95L235.3-24.95Q238.2-24.95 239.99-23.85 241.78-22.75 242.6-20.69 243.43-18.63 243.43-15.63L243.43-15.63 243.43 0ZM227.1 0L223.05 0 223.05-33.13 227.08-33.13 227.08-25.18 226.95-18.18 227.1-17.85 227.1 0ZM249.22-6.78L253.12-6.78Q253.2-6.3 253.29-5.54 253.37-4.78 253.37-3.9L253.37-3.9Q253.37-0.9 252.54 1.65 251.7 4.2 249.67 6.58L249.67 6.58 246.87 5.68Q248.17 3.6 248.8 1.33 249.42-0.95 249.42-3.73L249.42-3.73Q249.42-4.55 249.37-5.29 249.32-6.03 249.22-6.78L249.22-6.78ZM284.64 0.6L284.64 0.6Q278.59 0.6 275.44-2.74 272.29-6.08 272.29-12.3L272.29-12.3 272.29-19.68Q272.29-25.88 275.44-29.21 278.59-32.55 284.64-32.55L284.64-32.55Q290.69-32.55 293.84-29.21 296.99-25.88 296.99-19.68L296.99-19.68 296.99-12.3Q296.99-6.08 293.84-2.74 290.69 0.6 284.64 0.6ZM284.64-2.88L284.64-2.88Q288.69-2.88 290.74-5.29 292.79-7.7 292.79-12.13L292.79-12.13 292.79-19.85Q292.79-24.28 290.74-26.68 288.69-29.08 284.64-29.08L284.64-29.08Q280.62-29.08 278.57-26.68 276.52-24.28 276.52-19.85L276.52-19.85 276.52-12.13Q276.52-7.7 278.57-5.29 280.62-2.88 284.64-2.88ZM302.62-24.4L306.64-24.4 306.64-9.22Q306.64-7.3 307.18-5.86 307.72-4.42 308.94-3.64 310.17-2.85 312.24-2.85L312.24-2.85Q314.19-2.85 315.59-3.56 316.99-4.28 317.88-5.53 318.77-6.78 319.09-8.35L319.09-8.35 319.82-5.48 318.94-5.48Q318.57-3.83 317.57-2.46 316.57-1.1 314.88-0.29 313.19 0.53 310.72 0.53L310.72 0.53Q307.84 0.53 306.05-0.56 304.27-1.65 303.44-3.74 302.62-5.83 302.62-8.78L302.62-8.78 302.62-24.4ZM318.92-24.4L322.97-24.4 322.97 0 318.92 0 319.09-5.85 318.92-6.1 318.92-24.4ZM333.41-14.93L333.41-14.93 332.49-18.05 333.49-18.1Q334.29-21.2 336.24-22.99 338.19-24.78 341.41-24.78L341.41-24.78Q342.21-24.78 342.85-24.65 343.49-24.53 343.99-24.35L343.99-24.35 344.24-20.43Q343.61-20.63 342.85-20.75 342.09-20.88 341.16-20.88L341.16-20.88Q338.41-20.88 336.38-19.35 334.34-17.82 333.41-14.93ZM333.61 0L329.56 0 329.56-24.4 333.51-24.4 333.31-17.2 333.61-16.9 333.61 0ZM374.46-10.63L365.28-10.63 365.28-14.08 374.36-14.08Q377.63-14.08 379.11-15.71 380.58-17.35 380.58-20.23L380.58-20.23 380.58-22.4Q380.58-25.33 379.12-26.93 377.66-28.53 374.41-28.53L374.41-28.53 365.26-28.53 365.26-31.95 374.48-31.95Q379.83-31.95 382.27-29.44 384.71-26.93 384.71-22.53L384.71-22.53 384.71-20.13Q384.71-15.68 382.25-13.15 379.78-10.63 374.46-10.63L374.46-10.63ZM366.68 0L362.58 0 362.58-31.95 366.66-31.95 366.66-13.05 366.68-11.2 366.68 0ZM393.98-14.93L393.98-14.93 393.06-18.05 394.06-18.1Q394.85-21.2 396.81-22.99 398.75-24.78 401.98-24.78L401.98-24.78Q402.78-24.78 403.42-24.65 404.06-24.53 404.56-24.35L404.56-24.35 404.81-20.43Q404.18-20.63 403.42-20.75 402.65-20.88 401.73-20.88L401.73-20.88Q398.98-20.88 396.94-19.35 394.9-17.82 393.98-14.93ZM394.18 0L390.13 0 390.13-24.4 394.08-24.4 393.88-17.2 394.18-16.9 394.18 0ZM412.9 0L408.85 0 408.85-24.4 412.9-24.4 412.9 0ZM410.88-28.4L410.88-28.4Q409.63-28.4 409.01-29.06 408.4-29.73 408.4-30.88L408.4-30.88 408.4-31Q408.4-32.18 409.01-32.83 409.63-33.48 410.88-33.48L410.88-33.48Q412.13-33.48 412.75-32.83 413.38-32.18 413.38-31L413.38-31 413.38-30.88Q413.38-29.7 412.75-29.05 412.13-28.4 410.88-28.4ZM429.3 0.63L429.3 0.63Q424.05 0.63 421.34-2.21 418.62-5.05 418.62-10.38L418.62-10.38 418.62-14.1Q418.62-19.4 421.35-22.23 424.07-25.05 429.3-25.05L429.3-25.05Q434.55-25.05 437.26-22.23 439.97-19.4 439.97-14.1L439.97-14.1 439.97-10.38Q439.97-5.05 437.26-2.21 434.55 0.63 429.3 0.63ZM429.3-2.68L429.3-2.68Q432.55-2.68 434.24-4.6 435.92-6.53 435.92-10.15L435.92-10.15 435.92-14.33Q435.92-17.93 434.24-19.84 432.55-21.75 429.3-21.75L429.3-21.75Q426.07-21.75 424.37-19.84 422.67-17.93 422.67-14.33L422.67-14.33 422.67-10.15Q422.67-6.53 424.37-4.6 426.07-2.68 429.3-2.68ZM449.45-14.93L449.45-14.93 448.52-18.05 449.52-18.1Q450.32-21.2 452.27-22.99 454.22-24.78 457.45-24.78L457.45-24.78Q458.25-24.78 458.88-24.65 459.52-24.53 460.02-24.35L460.02-24.35 460.27-20.43Q459.65-20.63 458.88-20.75 458.12-20.88 457.2-20.88L457.2-20.88Q454.45-20.88 452.41-19.35 450.37-17.82 449.45-14.93ZM449.65 0L445.6 0 445.6-24.4 449.55-24.4 449.35-17.2 449.65-16.9 449.65 0ZM468.37 0L464.32 0 464.32-24.4 468.37-24.4 468.37 0ZM466.34-28.4L466.34-28.4Q465.09-28.4 464.48-29.06 463.87-29.73 463.87-30.88L463.87-30.88 463.87-31Q463.87-32.18 464.48-32.83 465.09-33.48 466.34-33.48L466.34-33.48Q467.59-33.48 468.22-32.83 468.84-32.18 468.84-31L468.84-31 468.84-30.88Q468.84-29.7 468.22-29.05 467.59-28.4 466.34-28.4ZM483.94 0.5L483.94 0.5Q481.12 0.5 479.39-0.35 477.67-1.2 476.89-2.93 476.12-4.65 476.12-7.23L476.12-7.23 476.12-22.63 480.12-22.63 480.12-7.7Q480.12-5.3 481.22-4.16 482.32-3.03 484.92-3.03L484.92-3.03Q486.39-3.03 487.75-3.35 489.12-3.68 490.32-4.28L490.32-4.28 489.94-0.8Q488.77-0.2 487.19 0.15 485.62 0.5 483.94 0.5ZM489.69-20.8L472.12-20.8 472.12-24.05 490.07-24.05 489.69-20.8ZM480.02-23.65L476.14-23.65 476.12-30.5 480.19-31.03 480.02-23.65ZM502.99-3.78L505.31-3.78 503.19-2.85 510.49-24.4 514.66-24.4 503.19 8.6 499.09 8.6 502.94-2.55 504.71-1 500.11-1 492.14-24.4 496.34-24.4 502.99-3.78Z" opacity="1" transform="matrix(1,0,0,1,0,0)" fill="#0080ff" class="slogan-text-1" data-fill-palette-color="secondary" id="text-1"></path></svg></g></svg></g></svg></g></svg></g><g><svg viewBox="0 0 227.42983556246173 176.28801276396587" height="176.28801276396587" width="227.42983556246173"><g><svg xmlns="http://www.w3.org/2000/svg" xmlns:xlink="http://www.w3.org/1999/xlink" version="1.1" x="0" y="0" viewBox="4.823 14.981 90.35499999999999 70.037" enable-background="new 0 0 100 100" xml:space="preserve" height="176.28801276396587" width="227.42983556246173" class="icon-icon-0" data-fill-palette-color="accent" id="icon-0"><path fill="#010c80" d="M71.611 14.981C61.932 14.981 53.626 20.823 49.997 29.166 46.369 20.823 38.075 14.981 28.396 14.981 15.373 14.981 4.823 25.534 4.823 38.551 4.823 46.306 8.63 53.132 14.403 57.427L49.997 85.018 85.598 57.427C91.378 53.132 95.178 46.306 95.178 38.551 95.178 25.535 84.621 14.981 71.611 14.981M72.329 53.09H59.881L56.426 43.747 48.84 67.1 41.217 50.026 40.455 52.201H27.673V48.643H37.931L40.817 40.402 48.316 57.197 56.208 32.901 62.36 49.532H72.33V53.09z" data-fill-palette-color="accent"></path></svg></g></svg></g></svg></g><defs></defs></svg><rect width="395.52" height="103.70716363047548" fill="none" stroke="none" visibility="hidden"></rect></g></svg></g></svg>